<svg width="44" height="40" viewBox="0 0 44 40" fill="none" xmlns="http://www.w3.org/2000/svg">
<rect width="44" height="40" rx="20" fill="white" fill-opacity="0.14"/>
<path d="M14.272 26.224C13.12 26.224 12.2027 25.9093 11.52 25.28C10.848 24.6507 10.512 23.7707 10.512 22.64V21.584H12.624V22.64C12.624 23.1413 12.7627 23.536 13.04 23.824C13.3173 24.1013 13.7067 24.24 14.208 24.24C14.6773 24.24 15.04 24.1013 15.296 23.824C15.5627 23.5467 15.696 23.152 15.696 22.64V16.72H13.776V14.8H19.088V16.72H17.808V22.64C17.808 23.8027 17.4933 24.6933 16.864 25.312C16.2347 25.92 15.3707 26.224 14.272 26.224ZM21.134 26.224C20.7073 26.224 20.3447 26.0853 20.046 25.808C19.758 25.52 19.614 25.152 19.614 24.704C19.614 24.256 19.758 23.8933 20.046 23.616C20.3447 23.328 20.7073 23.184 21.134 23.184C21.5713 23.184 21.934 23.328 22.222 23.616C22.51 23.8933 22.654 24.256 22.654 24.704C22.654 25.152 22.51 25.52 22.222 25.808C21.934 26.0853 21.5713 26.224 21.134 26.224ZM28.5308 26.224C27.1441 26.224 26.0454 25.84 25.2348 25.072C24.4241 24.2933 24.0188 23.184 24.0188 21.744V19.056C24.0188 17.616 24.4241 16.512 25.2348 15.744C26.0454 14.9653 27.1441 14.576 28.5308 14.576C29.9068 14.576 30.9681 14.9547 31.7148 15.712C32.4721 16.4587 32.8508 17.488 32.8508 18.8V18.896H30.7708V18.736C30.7708 18.0747 30.5841 17.5307 30.2108 17.104C29.8481 16.6773 29.2881 16.464 28.5308 16.464C27.7841 16.464 27.1974 16.6933 26.7708 17.152C26.3441 17.6107 26.1308 18.2347 26.1308 19.024V21.776C26.1308 22.5547 26.3441 23.1787 26.7708 23.648C27.1974 24.1067 27.7841 24.336 28.5308 24.336C29.2881 24.336 29.8481 24.1227 30.2108 23.696C30.5841 23.2587 30.7708 22.7147 30.7708 22.064V21.776H32.8508V22C32.8508 23.312 32.4721 24.3467 31.7148 25.104C30.9681 25.8507 29.9068 26.224 28.5308 26.224Z" fill="#8572FF"/>
</svg>
